<?xml version="1.0" encoding="utf-8"?><!DOCTYPE svg PUBLIC "-//W3C//DTD SVG 1.1//EN" "http://www.w3.org/Graphics/SVG/1.1/DTD/svg11.dtd"><svg xmlns="http://www.w3.org/2000/svg" xmlns:xlink="http://www.w3.org/1999/xlink"><symbol viewBox="0 0 24 24" id="about"><path d="M0 0h24v24H0z" fill="none"/><path d="M12 2C6.48 2 2 6.48 2 12s4.48 10 10 10 10-4.48 10-10S17.52 2 12 2zm1 17h-2v-2h2v2zm2.07-7.75l-.9.92C13.45 12.9 13 13.5 13 15h-2v-.5c0-1.1.45-2.1 1.17-2.83l1.24-1.26c.37-.36.59-.86.59-1.41 0-1.1-.9-2-2-2s-2 .9-2 2H8c0-2.21 1.79-4 4-4s4 1.79 4 4c0 .88-.36 1.68-.93 2.25z"/></symbol><symbol viewBox="0 0 24 24" id="account"><path d="M12 2C6.48 2 2 6.48 2 12s4.48 10 10 10 10-4.48 10-10S17.52 2 12 2zm0 3c1.66 0 3 1.34 3 3s-1.34 3-3 3-3-1.34-3-3 1.34-3 3-3zm0 14.2a7.2 7.2 0 0 1-6-3.22c.03-1.99 4-3.08 6-3.08 1.99 0 5.97 1.09 6 3.08a7.2 7.2 0 0 1-6 3.22z"/><path d="M0 0h24v24H0z" fill="none"/></symbol><symbol viewBox="0 0 24 24" id="arrow-down"><path d="M7.41 7.84L12 12.42l4.59-4.58L18 9.25l-6 6-6-6z"/><path d="M0-.75h24v24H0z" fill="none"/></symbol><symbol viewBox="0 0 24 24" id="arrow-left"><path d="M15.41 16.09l-4.58-4.59 4.58-4.59L14 5.5l-6 6 6 6z"/><path d="M0-.5h24v24H0z" fill="none"/></symbol><symbol viewBox="0 0 24 24" id="arrow-right"><path d="M8.59 16.34l4.58-4.59-4.58-4.59L10 5.75l6 6-6 6z"/><path d="M0-.25h24v24H0z" fill="none"/></symbol><symbol viewBox="0 0 24 24" id="arrow-up"><path d="M7.41 15.41L12 10.83l4.59 4.58L18 14l-6-6-6 6z"/><path d="M0 0h24v24H0z" fill="none"/></symbol><symbol viewBox="0 0 24 24" id="blog"><path d="M14 17H4v2h10v-2zm6-8H4v2h16V9zM4 15h16v-2H4v2zM4 5v2h16V5H4z"/><path d="M0 0h24v24H0z" fill="none"/></symbol><symbol viewBox="0 0 16 16" fill-rule="evenodd" clip-rule="evenodd" stroke-linejoin="round" stroke-miterlimit="1.414" id="codepen"><path d="M15.988 5.443c-.004-.02-.007-.04-.012-.058l-.01-.033c-.006-.017-.012-.034-.02-.05-.003-.012-.01-.023-.014-.034l-.023-.045-.02-.032-.03-.04-.024-.03a.402.402 0 0 0-.034-.038l-.027-.027-.04-.032-.03-.024-.012-.01L8.38.117a.68.68 0 0 0-.76 0L.305 4.99.296 5a.262.262 0 0 0-.032.023.4.4 0 0 0-.04.032l-.027.027-.034.037-.024.03-.03.04c-.006.012-.013.022-.02.033l-.023.045-.015.034c-.007.016-.012.033-.018.05l-.01.032c-.005.02-.01.038-.012.058l-.006.03A.869.869 0 0 0 0 5.56v4.875c0 .03.002.06.006.09l.007.03c.003.02.006.04.013.058l.01.033c.006.018.01.035.018.05l.015.033c.006.016.014.03.023.047l.02.03a.16.16 0 0 0 .03.042c.007.01.014.02.023.03.01.012.02.025.034.036.01.01.018.02.028.026l.04.033.03.023.01.01 7.31 4.876a.685.685 0 0 0 .762 0l7.314-4.875.01-.01a.262.262 0 0 0 .032-.023.4.4 0 0 0 .04-.032l.027-.027.034-.037.024-.03.03-.04.02-.032.023-.046.015-.033.018-.052.01-.033c.005-.02.01-.038.013-.058 0-.01.003-.02.004-.03a.68.68 0 0 0 .006-.09v-4.87a.68.68 0 0 0-.006-.09l-.007-.03zM8 9.626L5.568 8 8 6.374 10.432 8 8 9.626zM7.312 5.18l-2.98 1.993-2.406-1.61 5.386-3.59v3.206zM3.095 8l-1.72 1.15v-2.3L3.095 8zm1.237.828l2.98 1.993v3.208l-5.386-3.59 2.406-1.61zm4.355 1.993l2.98-1.993 2.407 1.61-5.387 3.59v-3.206zM12.905 8l1.72-1.15v2.3L12.905 8zm-1.237-.827L8.688 5.18V1.97l5.386 3.59-2.406 1.61z" fill-rule="nonzero"/></symbol><symbol viewBox="0 0 800 800" id="css"><path d="M50 0h700l-63.65 718.75L399.2 800l-285.5-81.25L50 0zm561.9 234.5l7.7-87.4-439.2-.1 7.612 87.423 341.027-.001-7.67 90.578H195.9l7.75 89h304.2L497 528.199 400 555l-98.5-27-6.25-70.301h-87l11 139L400 645l179.301-48.1L604.1 325l7.8-90.5z"/></symbol><symbol viewBox="0 0 16 16" fill-rule="evenodd" clip-rule="evenodd" stroke-linejoin="round" stroke-miterlimit="1.414" id="csswizardry"><path d="M0 11V.75C0 .334.336 0 .75 0h14.5c.416 0 .75.336.75.75v9.884c-.45-.275-.978-.413-1.58-.413-.84 0-1.476.198-1.91.592-.432.394-.65.888-.65 1.484 0 .652.225 1.132.673 1.438.265.184.743.354 1.435.51l.703.158c.413.09.715.194.908.31.192.12.288.29.288.51 0 .377-.194.634-.58.772l-.017.006h-1.484a1.034 1.034 0 0 1-.46-.308c-.122-.15-.205-.377-.247-.68h-1.327c0 .372.072.7.216.988h-1.122a1.97 1.97 0 0 0 .197-.88c0-.593-.2-1.046-.595-1.358-.256-.202-.635-.363-1.137-.483l-1.145-.276c-.442-.105-.73-.197-.866-.275a.578.578 0 0 1-.316-.534.69.69 0 0 1 .32-.604c.214-.144.5-.217.857-.217.322 0 .59.056.807.167.325.17.5.453.524.853h1.334c-.024-.707-.283-1.246-.777-1.617-.494-.37-1.092-.557-1.792-.557-.84 0-1.475.198-1.908.592-.433.394-.65.888-.65 1.484 0 .652.224 1.132.672 1.438.265.184.743.354 1.434.51l.704.158c.412.09.714.194.906.31.193.12.29.29.29.51 0 .377-.195.634-.583.772L9.107 16H7.625a1.034 1.034 0 0 1-.46-.308c-.122-.15-.205-.377-.247-.68H5.592c0 .372.072.7.216.988h-1.4c.22-.348.37-.748.444-1.2H3.477c-.094.342-.21.6-.352.77a1.23 1.23 0 0 1-.684.43h-.828c-.3-.077-.56-.247-.776-.51-.308-.37-.462-.93-.462-1.674 0-.746.145-1.322.437-1.73.293-.407.69-.61 1.196-.61.497 0 .87.143 1.123.432.14.162.256.403.347.722h1.39c-.022-.415-.176-.83-.46-1.24-.518-.734-1.336-1.1-2.455-1.1-.778 0-1.43.236-1.952.71zm16 2.436v-1.04h-.345c-.024-.4-.2-.685-.524-.854-.215-.11-.484-.167-.806-.167-.358 0-.643.073-.857.217a.69.69 0 0 0-.32.604c0 .238.105.415.316.533.135.077.424.17.866.274l1.144.275c.194.045.37.098.526.156z" fill-rule="nonzero"/></symbol><symbol viewBox="0 0 16 16" fill-rule="evenodd" clip-rule="evenodd" stroke-linejoin="round" stroke-miterlimit="1.414" id="deviantart"><path d="M12.8 3.196l.152-.287V0h-2.91l-.29.293L8.38 2.91l-.432.29h-4.9v3.995h2.694l.24.29-2.783 5.32-.152.286V16h2.91l.29-.293L7.62 13.09l.432-.29h4.9V8.805h-2.694l-.24-.292 2.783-5.317z" fill-rule="nonzero"/></symbol><symbol viewBox="0 0 16 16" fill-rule="evenodd" clip-rule="evenodd" stroke-linejoin="round" stroke-miterlimit="1.414" id="discord"><path d="M13.487-.002c.936 0 1.693.758 1.738 1.65v14.35l-1.783-1.515-.98-.892-1.07-.935.446 1.47h-9.36c-.935 0-1.693-.712-1.693-1.648V1.647c0-.89.758-1.65 1.694-1.65h11.007zm-4.08 3.788h-.02l-.134.134c1.382.4 2.05 1.025 2.05 1.025a7.238 7.238 0 0 0-2.496-.758c-.58-.09-1.16-.044-1.65 0h-.132c-.312 0-.98.134-1.872.49-.312.134-.49.223-.49.223s.668-.668 2.14-1.025l-.09-.09s-1.115-.043-2.318.848c0 0-1.203 2.095-1.203 4.68 0 0 .668 1.158 2.495 1.203 0 0 .268-.356.535-.668-1.025-.312-1.426-.936-1.426-.936s.09.044.223.133h.044c.02 0 .032.01.042.02l.004.005c.01.01.022.02.043.02.223.09.445.178.624.267.312.134.713.268 1.203.357a6.83 6.83 0 0 0 2.14 0c.4-.09.8-.178 1.203-.357.267-.133.58-.267.935-.49 0 0-.4.624-1.47.936.223.312.535.668.535.668 1.827-.043 2.54-1.202 2.584-1.157 0-2.585-1.203-4.68-1.203-4.68-1.09-.808-2.108-.847-2.29-.847h-.007zm.113 2.942c.468 0 .847.4.847.89 0 .493-.38.892-.847.892-.467 0-.846-.4-.846-.89 0-.493.38-.892.846-.892zm-3.03 0c.467 0 .846.4.846.89 0 .493-.38.892-.846.892-.468 0-.847-.4-.847-.89 0-.493.38-.892.847-.892z"/></symbol><symbol viewBox="0 0 24 24" id="download"><path d="M19 9h-4V3H9v6H5l7 7 7-7zM5 18v2h14v-2H5z"/><path d="M0 0h24v24H0z" fill="none"/></symbol><symbol viewBox="0 0 16 16" fill-rule="evenodd" clip-rule="evenodd" stroke-linejoin="round" stroke-miterlimit="1.414" id="dribbble"><path d="M8 16c-4.41 0-8-3.59-8-8s3.59-8 8-8 8 3.59 8 8-3.59 8-8 8zm6.747-6.905c-.234-.074-2.115-.635-4.257-.292.894 2.456 1.258 4.456 1.328 4.872a6.856 6.856 0 0 0 2.93-4.58zM10.67 14.3c-.102-.6-.5-2.688-1.46-5.18l-.044.014C5.312 10.477 3.93 13.15 3.806 13.4A6.788 6.788 0 0 0 8 14.844c.947 0 1.85-.194 2.67-.543zm-7.747-1.72c.155-.266 2.03-3.37 5.555-4.51.09-.03.18-.056.27-.08-.173-.39-.36-.778-.555-1.16-3.413 1.02-6.723.977-7.023.97l-.003.208c0 1.755.665 3.358 1.756 4.57zM1.31 6.61c.307.005 3.122.017 6.318-.832a43.733 43.733 0 0 0-2.533-3.952 6.86 6.86 0 0 0-3.784 4.785zM6.4 1.368c.188.253 1.43 1.943 2.548 4 2.43-.91 3.46-2.293 3.582-2.468A6.797 6.797 0 0 0 6.4 1.366zm6.89 2.322c-.145.194-1.29 1.662-3.816 2.694a20.578 20.578 0 0 1 .6 1.342c2.274-.286 4.533.172 4.758.22a6.794 6.794 0 0 0-1.543-4.257z"/></symbol><symbol viewBox="0 0 16 16" fill-rule="evenodd" clip-rule="evenodd" stroke-linejoin="round" stroke-miterlimit="1.414" id="facebook"><path d="M15.117 0H.883A.883.883 0 0 0 0 .883v14.234c0 .488.395.883.883.883h7.663V9.804H6.46V7.39h2.086V5.607c0-2.066 1.262-3.19 3.106-3.19.883 0 1.642.064 1.863.094v2.16h-1.28c-1 0-1.195.476-1.195 1.176v1.54h2.39l-.31 2.416h-2.08V16h4.077a.883.883 0 0 0 .883-.883V.883A.883.883 0 0 0 15.117 0" fill-rule="nonzero"/></symbol><symbol viewBox="0 0 24 24" id="favoris"><path d="M17 3H7c-1.1 0-1.99.9-1.99 2L5 21l7-3 7 3V5c0-1.1-.9-2-2-2zm0 15l-5-2.18L7 18V5h10v13z"/><path d="M0 0h24v24H0z" fill="none"/></symbol><symbol viewBox="0 0 24 24" id="forum"><path d="M0 0h24v24H0z" fill="none"/><path d="M21 6h-2v9H6v2c0 .55.45 1 1 1h11l4 4V7c0-.55-.45-1-1-1zm-4 6V3c0-.55-.45-1-1-1H3c-.55 0-1 .45-1 1v14l4-4h10c.55 0 1-.45 1-1z"/></symbol><symbol viewBox="0 0 16 16" fill-rule="evenodd" clip-rule="evenodd" stroke-linejoin="round" stroke-miterlimit="1.414" id="github"><path d="M8 0a8 8 0 0 0-8 8 8 8 0 0 0 5.47 7.59c.4.075.547-.172.547-.385 0-.19-.007-.693-.01-1.36-2.226.483-2.695-1.073-2.695-1.073-.364-.924-.89-1.17-.89-1.17-.725-.496.056-.486.056-.486.803.056 1.225.824 1.225.824.714 1.223 1.873.87 2.33.665.072-.517.278-.87.507-1.07-1.777-.2-3.644-.888-3.644-3.953 0-.873.31-1.587.823-2.147-.083-.202-.358-1.015.077-2.117 0 0 .672-.215 2.2.82a7.68 7.68 0 0 1 2.003-.27c.68.004 1.364.092 2.003.27 1.527-1.035 2.198-.82 2.198-.82.437 1.102.163 1.915.08 2.117.513.56.823 1.274.823 2.147 0 3.073-1.87 3.75-3.653 3.947.287.246.543.735.543 1.48 0 1.07-.01 1.933-.01 2.195 0 .215.144.463.55.385A8 8 0 0 0 8 0"/></symbol><symbol viewBox="0 0 16 16" fill-rule="evenodd" clip-rule="evenodd" stroke-linejoin="round" stroke-miterlimit="1.414" id="gulp"><path d="M10.108 12.96l.424-.724s-.964.395-2.578.395c-1.614 0-2.564-.386-2.564-.386l.475.79.168 2.485c0 .265.878.48 1.96.48 1.084 0 1.962-.215 1.962-.48l.153-2.56zm.41-4.705c-.513.03-.77.603-1.028 1.205-.095.22-.42 1.16-.633 1.044-.213-.116.276-.888.413-1.347-.158.116-.738.567-.887.144-.24.207-.754.317-.696-.22-.128.227-.415.544-.76.41-.45-.17.263-1.612.44-1.54.178.074-.035.4-.09.53-.124.28-.266.633-.17.705.16.124.603-.468.613-.48.083-.11.32-.826.51-.744.19.083-.475 1.028-.227 1.216.05.038.255-.024.38-.158.08-.088.052-.28.32-.922.27-.642.51-1.44.694-1.38.184.06.032.47-.034.624-.31.716-.847 1.9-.594 1.81.25-.088.383-.094.63-.384.25-.29.237-.768.4-.758.168.01.14.164.1.28.16-.186.77-.578.917-.19.174.46-.87 1.124-.61 1.09.254-.033.665-.293.84-.53l.484-4.346s-.485.403-3.58.403c-3.087 0-3.524-.395-3.524-.395l.41 3.967c.22-.62.738-1.876 1.555-1.834.373.02.87.735.444.76-.18.01-.198-.358-.41-.412-.155-.037-.37.088-.507.224-.276.27-.87 1.336-.79 1.867.1.678.933-.235 1.074-.506.1-.19.168-.756.385-.697.218.06-.02.643-.176 1.16-.178.58-.27 1.19-.493 1.12-.222-.07.14-.82.126-.95-.208.193-.593.68-1.084.44l.254 2.462s.68.536 2.724.536 2.748-.528 2.748-.528l.317-2.853c-.26.253-1.08.702-1.133.196-.043-.406.888-.995.65-1.014h-.002zM11.57.43L9.794 2.3 9.47 3.57c1.256.08 2.13.257 2.13.463 0 .28-1.612.506-3.6.506s-3.6-.225-3.6-.504c0-.28 1.612-.507 3.6-.507.282 0 .563.004.844.013l.374-1.52 1.887-2c.046-.053.187-.005.316.107.127.108.195.237.157.29l-.003.004-.004.006zM9.01 4.3s-.35 0-.408-.054a.09.09 0 0 1-.024-.06c0-.038.026-.06.06-.073l.03.05c-.014.004-.02.01-.022.015 0 .028.21.047.37.045.16-.002.355-.016.356-.043 0-.008-.015-.016-.04-.022l.03-.048c.042.013.078.038.078.08 0 .074-.094.086-.154.094-.072.01-.275.016-.275.016z"/></symbol><symbol fill="#FFF" viewBox="0 0 24 24" id="hamburger"><path d="M0 0h24v24H0z" fill="none"/><path d="M3 18h18v-2H3v2zm0-5h18v-2H3v2zm0-7v2h18V6H3z"/></symbol><symbol viewBox="0 0 24 24" id="home"><path d="M10 20v-6h4v6h5v-8h3L12 3 2 12h3v8z"/><path d="M0 0h24v24H0z" fill="none"/></symbol><symbol viewBox="0 0 14 16" fill-rule="evenodd" clip-rule="evenodd" stroke-linejoin="round" stroke-miterlimit="1.414" id="html"><path d="M0 0h14l-1.273 14.375L6.984 16l-5.71-1.625L0 0zm4.687 6.5l-.155-1.812 6.706.002.154-1.748-8.784-.002.465 5.34h6.084l-.217 2.284L7 11.1l-1.97-.54-.125-1.406h-1.74l.22 2.78L7 12.9l3.586-.962.496-5.438H4.687z"/></symbol><symbol viewBox="0 0 14 16" fill-rule="evenodd" clip-rule="evenodd" stroke-linejoin="round" stroke-miterlimit="1.414" id="html5"><path d="M0 0h14l-1.273 14.375L6.984 16l-5.71-1.625L0 0zm4.687 6.5l-.155-1.812 6.706.002.154-1.748-8.784-.002.465 5.34h6.084l-.217 2.284L7 11.1l-1.97-.54-.125-1.406h-1.74l.22 2.78L7 12.9l3.586-.962.496-5.438H4.687z"/></symbol><symbol viewBox="0 0 16 16" id="javascript"><path d="M0 0h16v16H0V0zm14.69 12.184c-.117-.73-.593-1.343-2.003-1.915-.49-.23-1.035-.39-1.198-.76-.06-.22-.07-.34-.03-.47.1-.43.61-.56 1.01-.44.26.085.5.284.65.602.69-.447.69-.444 1.17-.75-.18-.275-.27-.4-.39-.518-.417-.465-.98-.704-1.888-.686l-.47.06c-.45.114-.88.352-1.135.67-.758.86-.54 2.363.38 2.982.91.68 2.242.835 2.412 1.472.164.78-.575 1.032-1.31.943-.54-.114-.84-.39-1.168-.89l-1.213.7c.145.32.3.465.544.742 1.16 1.173 4.06 1.115 4.58-.665.02-.06.16-.468.05-1.096zM8.7 7.354H7.202c0 1.292-.006 2.576-.006 3.87 0 .822.042 1.576-.092 1.807-.22.46-.786.4-1.044.32-.264-.13-.398-.312-.553-.572-.042-.074-.074-.132-.085-.137-.406.25-.81.498-1.217.746.203.416.5.776.883 1.01.57.34 1.336.447 2.138.263.522-.15.972-.467 1.207-.946.34-.627.268-1.387.265-2.23.008-1.37 0-2.742 0-4.12z" fill-rule="evenodd"/></symbol><symbol viewBox="0 0 16 16" fill-rule="evenodd" clip-rule="evenodd" stroke-linejoin="round" stroke-miterlimit="1.414" id="laravel"><g fill-rule="nonzero"><path d="M4.3 8.85l9.14-2.19c-.507-.718-2.806-3.977-3.028-4.287-.25-.35.006-.512.412-.58a656.2 656.2 0 0 1 4.202-.7c.252-.037.46-.118.808.205A2.121 2.121 0 0 0 13.878 0H2.122A2.12 2.12 0 0 0 .038 1.722L4.3 8.85z"/><path d="M15.157 1.917c-.137.03-3.178.58-3.365.605-.187.025-.125.13-.05.238l2.676 3.67L16 6.04V2.617c-.22-.28-.38-.485-.418-.54-.17-.23-.288-.192-.425-.16m.843 8.17a714.119 714.119 0 0 1-1.706-2.34c-.11-.16-.17-.19-.432-.106l-8.91 2.32s2.735 4.732 2.945 5.035c.21.304.338.28.502.21.126-.054 5.202-1.77 7.6-2.583v-2.535zm0-1.567V7.18l-.834.223L16 8.52M10.53 16h3.348a2.121 2.121 0 0 0 2.115-1.958c-1.71.618-3.924 1.41-5.464 1.958m-6.831-5.712c-.994.26-2.423.634-3.698.964v2.626C0 15.05.95 16 2.122 16h4.8c-.628-1.026-2.337-4.105-3.224-5.712m-.748-1.38L0 3.816v6.07l2.887-.69c.235-.055.18-.085.063-.288"/><path d="M15.095 7.305L16 7.06v.42l-.62.207-.285-.382z"/></g></symbol><symbol viewBox="0 0 16 16" fill-rule="evenodd" clip-rule="evenodd" stroke-linejoin="round" stroke-miterlimit="1.414" id="linkedin"><path d="M13.632 13.635h-2.37V9.922c0-.886-.018-2.025-1.234-2.025-1.235 0-1.424.964-1.424 1.96v3.778h-2.37V6H8.51v1.04h.03c.318-.6 1.092-1.233 2.247-1.233 2.4 0 2.845 1.58 2.845 3.637v4.188zM3.558 4.955a1.376 1.376 0 1 1-.001-2.751 1.376 1.376 0 0 1 .001 2.751zm1.188 8.68H2.37V6h2.376v7.635zM14.816 0H1.18C.528 0 0 .516 0 1.153v13.694C0 15.484.528 16 1.18 16h13.635c.652 0 1.185-.516 1.185-1.153V1.153C16 .516 15.467 0 14.815 0z" fill-rule="nonzero"/></symbol><symbol viewBox="0 0 24 24" id="love"><path d="M0 0h24v24H0z" fill="none"/><path d="M12 21.35l-1.45-1.32C5.4 15.36 2 12.28 2 8.5 2 5.42 4.42 3 7.5 3c1.74 0 3.41.81 4.5 2.09C13.09 3.81 14.76 3 16.5 3 19.58 3 22 5.42 22 8.5c0 3.78-3.4 6.86-8.55 11.54L12 21.35z"/></symbol><symbol viewBox="0 0 24 24" id="message"><path d="M20 4H4c-1.1 0-1.99.9-1.99 2L2 18c0 1.1.9 2 2 2h16c1.1 0 2-.9 2-2V6c0-1.1-.9-2-2-2zm0 4l-8 5-8-5V6l8 5 8-5v2z"/><path d="M0 0h24v24H0z" fill="none"/></symbol><symbol viewBox="0 0 16 16" fill-rule="evenodd" clip-rule="evenodd" stroke-linejoin="round" stroke-miterlimit="1.414" id="playstation"><path d="M5.983 1.71v11.685l2.607.84v-9.8c0-.46.202-.767.528-.66.424.12.507.542.507 1.002V8.69c1.625.795 2.905-.002 2.905-2.1 0-2.156-.75-3.113-2.956-3.88-.87-.298-2.482-.79-3.59-1zm3.1 10.816l4.192-1.516c.476-.172.55-.416.164-.545-.39-.128-1.087-.092-1.563.082l-2.793.998V9.957l.16-.056s.806-.288 1.94-.416c1.137-.127 2.527.017 3.62.437 1.23.395 1.365.975 1.054 1.376-.31.4-1.078.685-1.078.685l-5.696 2.076v-1.53zm-7.88-.16c-1.265-.362-1.474-1.11-.9-1.545.534-.398 1.438-.7 1.438-.7l3.737-1.345v1.535l-2.688.976c-.477.173-.55.417-.164.545.386.13 1.087.093 1.563-.08l1.287-.475v1.374c-.08.014-.173.03-.258.043a8.32 8.32 0 0 1-4.018-.327z"/></symbol><symbol viewBox="0 0 24 24" id="power"><path d="M0 0h24v24H0z" fill="none"/><path d="M13 3h-2v10h2V3zm4.83 2.17l-1.42 1.42A6.92 6.92 0 0 1 19 12c0 3.87-3.13 7-7 7A6.995 6.995 0 0 1 7.58 6.58L6.17 5.17A8.932 8.932 0 0 0 3 12a9 9 0 0 0 18 0c0-2.74-1.23-5.18-3.17-6.83z"/></symbol><symbol viewBox="0 0 16 16" fill-rule="evenodd" clip-rule="evenodd" stroke-linejoin="round" stroke-miterlimit="1.414" id="rss"><path d="M12.8 16C12.8 8.978 7.022 3.2 0 3.2V0c8.777 0 16 7.223 16 16h-3.2zM2.194 11.61c1.21 0 2.195.985 2.195 2.196a2.195 2.195 0 1 1-2.195-2.195zM10.606 16h-3.11c0-4.113-3.383-7.497-7.496-7.497v-3.11c5.818 0 10.606 4.79 10.606 10.607z"/></symbol><symbol viewBox="0 0 16 16" fill-rule="evenodd" clip-rule="evenodd" stroke-linejoin="round" stroke-miterlimit="1.414" id="ruby"><path d="M13.437.056c2.023.35 2.595 1.732 2.553 3.18l.01-.02-.91 11.925-11.83.804.01-.006C2.288 15.91.1 15.818 0 12.754l1.096-1.997 1.88 4.39.335.783 1.862-6.095-.023.005.004-.018 6.168 1.97-.924-3.618-.66-2.608 5.874-.384-.415-.34-4.202-3.437 2.442-1.35zM0 12.726v.018-.019zm3.42-9.343C5.794 1.028 8.858-.364 10.034.822c1.175 1.186-.07 4.07-2.448 6.425C5.21 9.602 2.184 11.07 1.01 9.885c-1.177-1.185.03-4.145 2.408-6.5z"/></symbol><symbol viewBox="0 0 16 16" fill-rule="evenodd" clip-rule="evenodd" stroke-linejoin="round" stroke-miterlimit="1.414" id="sass"><path d="M8 0a8 8 0 1 1 0 16A8 8 0 0 1 8 0zM6.41 10.665c.117.43.104.832-.016 1.195l-.044.12a2.237 2.237 0 0 1-.422.657c-.465.506-1.114.698-1.393.536-.3-.174-.15-.89.39-1.46.58-.612 1.413-1.006 1.413-1.006v-.002l.072-.04zm6.608-7.24c-.362-1.422-2.718-1.89-4.948-1.097C6.743 2.8 5.307 3.54 4.274 4.506 3.046 5.654 2.85 6.654 2.93 7.072c.285 1.474 2.305 2.438 3.136 3.153v.004c-.245.12-2.037 1.026-2.457 1.953-.443.98.07 1.68.41 1.775 1.052.293 2.13-.234 2.71-1.1.56-.835.515-1.913.27-2.45a3.246 3.246 0 0 1 1.226-.07c1.403.164 1.68 1.04 1.626 1.407-.053.367-.347.568-.446.63-.098.06-.128.08-.12.126.012.067.058.065.142.05.115-.02.737-.298.763-.975.035-.86-.79-1.82-2.247-1.795-.6.01-.978.067-1.25.17-.02-.024-.042-.047-.063-.07-.9-.962-2.568-1.642-2.497-2.935.025-.47.19-1.708 3.202-3.21 2.47-1.23 4.445-.89 4.786-.14.49 1.07-1.055 3.062-3.618 3.35-.977.11-1.49-.27-1.62-.41-.134-.15-.154-.155-.204-.127-.082.045-.03.176 0 .254.076.2.39.552.926.728.47.155 1.618.24 3.004-.297 1.554-.6 2.766-2.272 2.41-3.67z"/></symbol><symbol viewBox="0 0 24 24" id="search"><path d="M15.5 14h-.79l-.28-.27A6.471 6.471 0 0 0 16 9.5 6.5 6.5 0 1 0 9.5 16c1.61 0 3.09-.59 4.23-1.57l.27.28v.79l5 4.99L20.49 19l-4.99-5zm-6 0C7.01 14 5 11.99 5 9.5S7.01 5 9.5 5 14 7.01 14 9.5 11.99 14 9.5 14z"/><path d="M0 0h24v24H0z" fill="none"/></symbol><symbol viewBox="0 0 16 16" fill-rule="evenodd" clip-rule="evenodd" stroke-linejoin="round" stroke-miterlimit="1.414" id="skype"><path d="M8.035 12.6c-2.685 0-3.885-1.322-3.885-2.313 0-.51.374-.865.89-.865 1.15 0 .85 1.653 2.995 1.653 1.096 0 1.703-.597 1.703-1.208 0-.368-.18-.775-.904-.954l-2.387-.597C4.524 7.833 4.175 6.79 4.175 5.812c0-2.034 1.91-2.798 3.704-2.798 1.65 0 3.6.916 3.6 2.136 0 .523-.452.827-.97.827-.98 0-.798-1.36-2.773-1.36-.98 0-1.523.444-1.523 1.08 0 .636.774.84 1.446.993l1.767.392c1.936.433 2.427 1.566 2.427 2.633 0 1.652-1.266 2.886-3.82 2.886m7.4-3.264l-.014.084-.028-.16c.015.024.028.05.042.076a7.68 7.68 0 0 0 .125-1.373c0-1.023-.2-2.014-.595-2.948a7.516 7.516 0 0 0-1.62-2.407 7.484 7.484 0 0 0-2.4-1.623A7.589 7.589 0 0 0 6.575.525H6.57l.08.04-.16-.023.08-.016A4.464 4.464 0 0 0 4.472 0 4.437 4.437 0 0 0 1.31 1.313 4.46 4.46 0 0 0 0 4.483c0 .763.195 1.512.563 2.175l.013-.083.028.16c-.015-.026-.027-.052-.04-.077a7.561 7.561 0 0 0 2.098 6.661 7.51 7.51 0 0 0 2.4 1.623 7.521 7.521 0 0 0 4.265.479l-.077-.043.162.028-.084.014c.67.378 1.426.58 2.2.58a4.437 4.437 0 0 0 3.162-1.313 4.49 4.49 0 0 0 .744-5.35" fill-rule="nonzero"/></symbol><symbol viewBox="0 0 16 16" fill-rule="evenodd" clip-rule="evenodd" stroke-linejoin="round" stroke-miterlimit="1.414" id="slack"><g fill-rule="nonzero"><path d="M6.586 7.33l.69 2.057 2.137-.716-.69-2.056-2.137.716z"/><path d="M12.55 9.37l-1.037.347.36 1.073a.831.831 0 0 1-1.576.526l-.36-1.072-2.138.716.36 1.072a.83.83 0 0 1-1.573.527l-.36-1.075-1.037.348a.829.829 0 0 1-.529-1.573l1.04-.345-.69-2.058-1.037.347a.826.826 0 0 1-1.05-.523.831.831 0 0 1 .523-1.05l1.037-.347-.36-1.073a.83.83 0 0 1 1.574-.526l.36 1.072 2.137-.716-.36-1.072a.831.831 0 0 1 1.574-.527l.36 1.075 1.037-.347a.83.83 0 1 1 .527 1.572l-1.037.347.69 2.057 1.036-.347a.83.83 0 0 1 .528 1.573zm2.78-3.57C13.68.304 11.298-.98 5.8.67.304 2.32-.98 4.7.67 10.2c1.65 5.497 4.03 6.78 9.53 5.13 5.497-1.65 6.78-4.03 5.13-9.53z"/></g></symbol><symbol viewBox="0 0 16 16" fill-rule="evenodd" clip-rule="evenodd" stroke-linejoin="round" stroke-miterlimit="1.414" id="steam"><path d="M7.986 0A7.998 7.998 0 0 0 .014 7.358L4.302 9.13a2.26 2.26 0 0 1 1.4-.389L7.61 5.978v-.04a3.019 3.019 0 0 1 3.016-3.016 3.021 3.021 0 0 1 3.017 3.018 3.02 3.02 0 0 1-3.017 3.017h-.07l-2.718 1.94c0 .035.003.07.003.107a2.265 2.265 0 0 1-4.484.446L.29 10.18C1.24 13.538 4.323 16 7.985 16a8 8 0 0 0 0-16zm-2.96 12.14l-.982-.407c.175.362.476.666.876.833a1.7 1.7 0 0 0 1.307-3.138 1.7 1.7 0 0 0-1.252-.02l1.015.42a1.251 1.251 0 0 1-.963 2.311zm7.61-6.202c0-1.108-.902-2.01-2.01-2.01a2.01 2.01 0 1 0 2.01 2.01zM9.12 5.935a1.51 1.51 0 1 1 3.02 0 1.51 1.51 0 0 1-3.02 0z"/></symbol><symbol viewBox="0 0 16 16" fill-rule="evenodd" clip-rule="evenodd" stroke-linejoin="round" stroke-miterlimit="1.414" id="stumbleupon"><path d="M8 0a8 8 0 0 0-8 8c0 4.42 3.58 8 8 8s8-3.58 8-8a8 8 0 0 0-8-8zm-.412 5.938v3.3c0 1.236-1.128 2.167-2.3 2.167-1.096 0-2.12-.518-2.236-1.756V7.587h1.65v1.65c0 .41.29.477.585.477.293 0 .65-.066.65-.478v-3.3c.034-1.236 1.053-2.01 2.194-2.01 1.162 0 1.932.878 1.932 2.01v.696l-.818.39-.832-.39V5.526s-.11-.12-.28-.12c-.283 0-.544.12-.544.532zm5.36 3.3c0 1.236-1.06 2.074-2.235 2.074-1.174 0-2.3-.838-2.3-2.075v-1.65h1.65v1.65c0 .412.357.478.65.478.294 0 .586-.066.586-.478v-1.65h1.648v1.65z" fill-rule="nonzero"/></symbol><symbol viewBox="0 0 24 24" id="style"><path d="M2.53 19.65l1.34.56v-9.03l-2.43 5.86c-.41 1.02.08 2.19 1.09 2.61zm19.5-3.7L17.07 3.98a2.013 2.013 0 0 0-1.81-1.23c-.26 0-.53.04-.79.15L7.1 5.95a1.999 1.999 0 0 0-1.08 2.6l4.96 11.97a1.998 1.998 0 0 0 2.6 1.08l7.36-3.05a1.994 1.994 0 0 0 1.09-2.6zM7.88 8.75c-.55 0-1-.45-1-1s.45-1 1-1 1 .45 1 1-.45 1-1 1zm-2 11c0 1.1.9 2 2 2h1.45l-3.45-8.34v6.34z"/><path d="M0 0h24v24H0z" fill="none"/></symbol><symbol viewBox="0 0 16 16" fill-rule="evenodd" clip-rule="evenodd" stroke-linejoin="round" stroke-miterlimit="1.414" id="trello"><path d="M2 0a2 2 0 0 0-2 2v12a2 2 0 0 0 2 2h12a2 2 0 0 0 2-2V2a2 2 0 0 0-2-2H2zm8 2.08a.96.96 0 0 0-.96.96v5.08c0 .53.43.96.96.96h2.96c.53 0 .96-.43.96-.96V3.04a.96.96 0 0 0-.96-.96H10zm-6.96 0a.96.96 0 0 0-.96.96v9.08c0 .53.43.96.96.96H6c.53 0 .96-.43.96-.96V3.04A.96.96 0 0 0 6 2.08H3.04z"/></symbol><symbol viewBox="0 0 16 16" fill-rule="evenodd" clip-rule="evenodd" stroke-linejoin="round" stroke-miterlimit="1.414" id="tumblr"><path d="M9.708 16c-3.396 0-4.687-2.504-4.687-4.274V6.498H3.403V4.432C5.83 3.557 6.412 1.368 6.55.12c.01-.086.077-.12.115-.12H9.01v4.076h3.2v2.422H8.997v4.98c.01.667.25 1.58 1.472 1.58h.067c.424-.012.994-.136 1.29-.278l.77 2.283c-.288.424-1.594.916-2.77.936h-.12z" fill-rule="nonzero"/></symbol><symbol viewBox="0 0 24 24" id="tuto"><path d="M0 0h24v24H0z" fill="none"/><path d="M5 13.18v4L12 21l7-3.82v-4L12 17l-7-3.82zM12 3L1 9l11 6 9-4.91V17h2V9L12 3z"/></symbol><symbol viewBox="0 0 16 16" fill-rule="evenodd" clip-rule="evenodd" stroke-linejoin="round" stroke-miterlimit="1.414" id="twitch"><g fill-rule="nonzero"><path d="M1.393 0L.35 2.783v11.13h3.824V16h2.088l2.085-2.088h3.13L15.65 9.74V0H1.394zm1.39 1.39H14.26v7.653l-2.435 2.435H8l-2.085 2.085v-2.085H2.783V1.39z"/><path d="M6.61 8.348H8V4.175H6.61v4.173zm3.824 0h1.39V4.175h-1.39v4.173z"/></g></symbol><symbol viewBox="0 0 16 16" fill-rule="evenodd" clip-rule="evenodd" stroke-linejoin="round" stroke-miterlimit="1.414" id="twitter"><path d="M16 3.038a6.62 6.62 0 0 1-1.885.517 3.299 3.299 0 0 0 1.443-1.816 6.59 6.59 0 0 1-2.085.795 3.273 3.273 0 0 0-2.396-1.036 3.281 3.281 0 0 0-3.197 4.03A9.329 9.329 0 0 1 1.114 2.1 3.243 3.243 0 0 0 .67 3.75c0 1.14.58 2.143 1.46 2.732a3.278 3.278 0 0 1-1.487-.41v.04c0 1.59 1.13 2.918 2.633 3.22a3.336 3.336 0 0 1-1.482.056 3.287 3.287 0 0 0 3.067 2.28 6.592 6.592 0 0 1-4.077 1.404c-.265 0-.526-.015-.783-.045a9.303 9.303 0 0 0 5.032 1.474c6.038 0 9.34-5 9.34-9.338 0-.143-.004-.284-.01-.425a6.67 6.67 0 0 0 1.638-1.7z" fill-rule="nonzero"/></symbol><symbol viewBox="0 0 24 24" id="unlove"><path d="M0 0h24v24H0z" fill="none"/><path d="M16.5 3c-1.74 0-3.41.81-4.5 2.09C10.91 3.81 9.24 3 7.5 3 4.42 3 2 5.42 2 8.5c0 3.78 3.4 6.86 8.55 11.54L12 21.35l1.45-1.32C18.6 15.36 22 12.28 22 8.5 22 5.42 19.58 3 16.5 3zm-4.4 15.55l-.1.1-.1-.1C7.14 14.24 4 11.39 4 8.5 4 6.5 5.5 5 7.5 5c1.54 0 3.04.99 3.57 2.36h1.87C13.46 5.99 14.96 5 16.5 5c2 0 3.5 1.5 3.5 3.5 0 2.89-3.14 5.74-7.9 10.05z"/></symbol><symbol viewBox="0 0 16 16" fill-rule="evenodd" clip-rule="evenodd" stroke-linejoin="round" stroke-miterlimit="1.414" id="viadeo"><path d="M6.742 14.658h.02c.772 0 1.48-.187 2.125-.56a4.061 4.061 0 0 0 1.536-1.59 4.522 4.522 0 0 0 .568-2.22c0-.643-.114-1.237-.343-1.78.38-.08.84-.236 1.322-.533.287.702.432 1.463.432 2.284 0 1.532-.526 2.873-1.578 4.02C9.772 15.427 8.42 16 6.768 16c-1.66 0-3.015-.573-4.067-1.72-1.05-1.147-1.577-2.488-1.577-4.02 0-1.522.498-2.84 1.494-3.957 1.095-1.23 2.478-1.846 4.15-1.846.704 0 1.356.11 1.957.328-.195.382-.372.85-.42 1.353-.477-.2-.99-.3-1.54-.3-1.158 0-2.152.435-2.983 1.303-.83.868-1.246 1.918-1.246 3.15 0 .793.19 1.533.57 2.22a4.058 4.058 0 0 0 2.9 2.084c4.137-1.603 3.65-9.443 3.62-9.874l.035.108c2.43 6.487-2.868 9.828-2.868 9.828-.016 0-.033 0-.05.002zM14.056.363c-.676 1.438-1.93 1.705-1.93 1.705-1.252.318-1.69.8-1.69.8-1.252 1.26-.266 2.788-.266 2.788 2.705-.616 3.693-2.838 3.693-2.838-.12 1.493-3.34 3.257-3.34 3.257 1.066 1.042 2.083.917 2.755.517.89-.53 1.318-1.69 1.318-1.69.863-2.58-.54-4.54-.54-4.54zM7.406 0a26.805 26.805 0 0 1 2.217 4.72V4.7C9.295 1.255 7.404 0 7.404 0z"/></symbol><symbol viewBox="0 0 16 16" fill-rule="evenodd" clip-rule="evenodd" stroke-linejoin="round" stroke-miterlimit="1.414" id="wikipedia"><path d="M8.044 8.748c-.623 1.285-1.475 3.026-1.898 3.81-.41.715-.75.62-1.02.02-.935-2.21-2.856-6.084-3.76-8.256-.167-.4-.293-.657-.412-.758-.12-.1-.368-.16-.746-.18C.068 3.367 0 3.333 0 3.278v-.303l.034-.03c.615-.003 3.594 0 3.594 0l.034.03v.288c0 .08-.05.118-.15.118l-.375.015c-.322.014-.483.11-.483.288 0 .083.034.22.11.4.72 1.755 3.206 7 3.206 7l.09.023 1.604-3.2c-.196-.432-.32-.71-.32-.71L6.24 5.036s-.212-.433-.285-.577c-.484-.96-.473-1.01-.963-1.076-.137-.018-.208-.035-.208-.103v-.305l.04-.03H7.68l.075.024v.302c0 .07-.05.104-.15.104l-.206.03c-.523.04-.438.254-.09.946l1.057 2.163 1.17-2.333c.195-.426.155-.533.074-.632-.046-.055-.202-.145-.54-.158l-.133-.015a.15.15 0 0 1-.096-.034.1.1 0 0 1-.046-.085V2.97l.04-.03c.83-.005 2.69 0 2.69 0l.032.03v.29c0 .08-.045.118-.133.118-.433.02-.522.063-.68.292-.087.124-.258.392-.435.692l-1.52 2.843-.043.09 1.858 3.8.113.032 2.926-6.945c.102-.28.086-.48-.044-.595-.13-.114-.224-.182-.563-.196l-.275-.012a.16.16 0 0 1-.096-.035.102.102 0 0 1-.046-.085v-.29l.042-.028h3.306l.034.03v.288c0 .08-.045.118-.133.118-.433.02-.754.114-.962.28-.21.17-.37.403-.488.706 0 0-2.69 6.16-3.612 8.208-.353.67-.7.61-1.004-.02-.38-.786-1.174-2.52-1.756-3.802z"/></symbol><symbol viewBox="0 0 16 16" fill-rule="evenodd" clip-rule="evenodd" stroke-linejoin="round" stroke-miterlimit="1.414" id="xbox"><path d="M2.734 14.024A7.965 7.965 0 0 0 8 16.002c2.017 0 3.86-.746 5.267-1.978C14.52 12.748 10.39 8.216 8 6.41c-2.388 1.806-6.52 6.338-5.266 7.614zm7.44-9.607c1.667 1.974 4.99 6.877 4.05 8.61A7.964 7.964 0 0 0 16 8.002a7.97 7.97 0 0 0-2.38-5.692s-.018-.015-.056-.028a.525.525 0 0 0-.187-.03c-.394 0-1.323.29-3.203 2.165zM2.436 2.282c-.038.013-.055.027-.057.028A7.973 7.973 0 0 0 0 8.002c0 1.903.665 3.65 1.774 5.023C.84 11.288 4.16 6.39 5.827 4.417c-1.88-1.876-2.81-2.164-3.204-2.164a.5.5 0 0 0-.187.03zM8 2.365S6.036 1.217 4.503 1.162c-.602-.022-.97.197-1.014.226C4.927.427 6.442-.003 7.997-.003h.005c1.555 0 3.07.43 4.51 1.39-.046-.028-.412-.247-1.014-.225-1.534.055-3.497 1.2-3.497 1.2L8 2.366z"/></symbol><symbol viewBox="0 0 16 16" fill-rule="evenodd" clip-rule="evenodd" stroke-linejoin="round" stroke-miterlimit="1.414" id="youtube"><path d="M0 7.345c0-1.294.16-2.59.16-2.59s.156-1.1.636-1.587c.608-.637 1.408-.617 1.764-.684C3.84 2.36 8 2.324 8 2.324s3.362.004 5.6.166c.314.038.996.04 1.604.678.48.486.636 1.588.636 1.588S16 6.05 16 7.346v1.258c0 1.296-.16 2.59-.16 2.59s-.156 1.102-.636 1.588c-.608.638-1.29.64-1.604.678-2.238.162-5.6.166-5.6.166s-4.16-.037-5.44-.16c-.356-.067-1.156-.047-1.764-.684-.48-.487-.636-1.587-.636-1.587S0 9.9 0 8.605v-1.26zm6.348 2.73V5.58l4.323 2.255-4.32 2.24h-.002z"/></symbol></svg>